<svg id="Layer_1" data-name="Layer 1" xmlns="http://www.w3.org/2000/svg" width="100" height="26.34" viewBox="0 0 100 26.34"><title>Logo_100x27</title><rect x="7.782" y="15.402" width="10.777" height="10.777" rx="4.999" ry="4.999" transform="translate(-10.843 15.402) rotate(-45)" fill="#f7b733"/><rect x="0.161" y="7.782" width="10.777" height="10.777" rx="4.999" ry="4.999" transform="translate(-7.687 7.781) rotate(-45)" fill="#fc4a1a"/><rect x="7.782" y="0.161" width="10.777" height="10.777" rx="4.999" ry="4.999" transform="translate(-0.066 10.938) rotate(-45)" fill="#4abdac"/><rect x="15.402" y="7.782" width="10.777" height="10.777" rx="4.999" ry="4.999" transform="translate(-3.223 18.558) rotate(-45)" fill="#00d2f1"/><path d="M28.119,18.484V7.867h2.346v8.545h2.413v2.071Z" transform="translate(0 0)" fill="#dfdce3"/><path d="M36.473,18.6q-2.987,0-2.987-3.113V11.479a3.159,3.159,0,0,1,.8-2.273,3.274,3.274,0,0,1,4.379,0,3.159,3.159,0,0,1,.8,2.273v4.013a3.2,3.2,0,0,1-.764,2.34A2.994,2.994,0,0,1,36.473,18.6ZM35.912,11.1v4.886a.894.894,0,0,0,.156.584.534.534,0,0,0,.806,0,.894.894,0,0,0,.157-.584V11.1q0-.874-.56-.874t-.561.874Z" transform="translate(0 0)" fill="#dfdce3"/><path d="M40.35,18.484v-10h2.386V9.6a1.8,1.8,0,0,1,.56-.96,1.466,1.466,0,0,1,.913-.274,1.811,1.811,0,0,1,1.173.41,1.441,1.441,0,0,1,.506,1.19v3.346H43.555V10.919a2.429,2.429,0,0,0-.016-.3.488.488,0,0,0-.106-.236.31.31,0,0,0-.256-.114.4.4,0,0,0-.306.154.618.618,0,0,0-.134.42v7.643Z" transform="translate(0 0)" fill="#dfdce3"/><path d="M49.447,18.6a3.907,3.907,0,0,1-.966-.11,2.747,2.747,0,0,1-.734-.286,1.884,1.884,0,0,1-.513-.446,2.589,2.589,0,0,1-.344-.55,3.118,3.118,0,0,1-.2-.643,5.026,5.026,0,0,1-.1-.666q-.024-.306-.024-.68V11.205A2.733,2.733,0,0,1,47.358,9.1a3.133,3.133,0,0,1,2.209-.73q2.879,0,2.879,2.839v.724q0,1.353-.026,1.857H48.953V15.63a3.58,3.58,0,0,0,.021.41,2,2,0,0,0,.071.346.494.494,0,0,0,.176.266.515.515,0,0,0,.31.09.4.4,0,0,0,.314-.136.829.829,0,0,0,.17-.393,3.829,3.829,0,0,0,.064-.456q.014-.2.014-.5,0-.586-.014-.643h2.373v.566a6.849,6.849,0,0,1-.126,1.42,2.944,2.944,0,0,1-.451,1.056,1.933,1.933,0,0,1-.923.7A4.169,4.169,0,0,1,49.447,18.6Zm.094-8.445a.5.5,0,0,0-.313.1.554.554,0,0,0-.186.29,1.9,1.9,0,0,0-.08.4,4.953,4.953,0,0,0-.021.5q0,.143.006.42t.007.42h1.119V11.242Q50.072,10.159,49.541,10.159Z" transform="translate(0 0)" fill="#dfdce3"/><path d="M53.317,8.479H55.65V9.643a2.154,2.154,0,0,1,.234-.576,1.442,1.442,0,0,1,.309-.376,1.345,1.345,0,0,1,.374-.214,1.612,1.612,0,0,1,.384-.1,3.319,3.319,0,0,1,.379-.02,2.117,2.117,0,0,1,.6.086,1.674,1.674,0,0,1,.586.33,1.458,1.458,0,0,1,.434.61,2.009,2.009,0,0,1,.709-.8,1.952,1.952,0,0,1,.99-.23,2.584,2.584,0,0,1,.8.114,1.451,1.451,0,0,1,.571.33,2.21,2.21,0,0,1,.374.474,1.953,1.953,0,0,1,.221.6,5.873,5.873,0,0,1,.1.643q.026.3.026.666l-.026,7.305H60.3V11.139q0-.966-.486-.966a.479.479,0,0,0-.323.116.694.694,0,0,0-.2.3,1.945,1.945,0,0,0-.094.364,2.37,2.37,0,0,0-.026.35v7.179H56.781V10.969a1.279,1.279,0,0,0-.016-.186l-.034-.174a.539.539,0,0,0-.056-.167,1.056,1.056,0,0,0-.084-.124.289.289,0,0,0-.116-.09.4.4,0,0,0-.156-.03.481.481,0,0,0-.33.12.744.744,0,0,0-.207.32,2.223,2.223,0,0,0-.1.394,2.519,2.519,0,0,0-.03.394v7.059H53.315Z" transform="translate(0 0)" fill="#dfdce3"/><path d="M67.033,18.484V7.867H69.3V18.484Z" transform="translate(0 0)" fill="#dfdce3"/><path d="M72.734,19.724H70.306V8.487h2.429v.54a1.759,1.759,0,0,1,1.433-.66,2.207,2.207,0,0,1,.85.154,1.614,1.614,0,0,1,.6.414,2.048,2.048,0,0,1,.374.646,3.774,3.774,0,0,1,.2.806,7.117,7.117,0,0,1,.056.934v3.693c0,.32,0,.564-.007.734s-.019.4-.046.7a3.487,3.487,0,0,1-.117.694,4.286,4.286,0,0,1-.233.571,1.307,1.307,0,0,1-.38.49,2.157,2.157,0,0,1-.571.29,2.353,2.353,0,0,1-.794.124,1.752,1.752,0,0,1-1.366-.514Zm0-8.429v4.376a1.9,1.9,0,0,0,.13.8.455.455,0,0,0,.444.264.411.411,0,0,0,.4-.27,2.419,2.419,0,0,0,.12-.9V11.1c0-.045-.006-.119-.014-.224a.82.82,0,0,0-.043-.24,1.738,1.738,0,0,0-.091-.186.346.346,0,0,0-.153-.15.528.528,0,0,0-.23-.046q-.564,0-.564,1.04Z" transform="translate(0 0)" fill="#dfdce3"/><path d="M80.424,11.465l-.013-.38a1.8,1.8,0,0,0-.021-.266,1.367,1.367,0,0,0-.071-.276.516.516,0,0,0-.16-.23.389.389,0,0,0-.253-.086.488.488,0,0,0-.376.143.554.554,0,0,0-.13.394.994.994,0,0,0,.429.846l1.472,1.08a5,5,0,0,1,.76.686,3.771,3.771,0,0,1,.484.656,3.052,3.052,0,0,1,.259.636,3.3,3.3,0,0,1,.117.554q.019.214.019.48a2.786,2.786,0,0,1-.81,2.169,3.143,3.143,0,0,1-2.2.736q-2.959,0-2.959-3.013l.013-.794h2.387l.013,1.173a1.179,1.179,0,0,0,.056.4.439.439,0,0,0,.156.224.587.587,0,0,0,.184.086.814.814,0,0,0,.189.02q.48,0,.48-.78c0-.134,0-.23-.006-.29a1.774,1.774,0,0,0-.05-.266.89.89,0,0,0-.143-.31,3.492,3.492,0,0,0-.28-.326,3.906,3.906,0,0,0-.464-.406l-1.273-.98a4.414,4.414,0,0,1-.666-.624,2,2,0,0,1-.374-.643,3.011,3.011,0,0,1-.15-.606,5.825,5.825,0,0,1-.034-.7,2.084,2.084,0,0,1,.441-1.326,2.577,2.577,0,0,1,1.1-.82,3.831,3.831,0,0,1,1.423-.26,3.011,3.011,0,0,1,2.157.714,2.909,2.909,0,0,1,.749,2.2v.186Z" transform="translate(0 0)" fill="#dfdce3"/><path d="M87.215,8.487h2.373v10H87.2V17.419a1.977,1.977,0,0,1-.643.946,1.591,1.591,0,0,1-.9.24,2.293,2.293,0,0,1-.874-.15,1.538,1.538,0,0,1-.571-.379,1.618,1.618,0,0,1-.324-.6,3.461,3.461,0,0,1-.149-.714q-.034-.346-.034-.826V8.487h2.4v6.965a3.691,3.691,0,0,0,.09,1.016.413.413,0,0,0,.444.256.54.54,0,0,0,.236-.05.357.357,0,0,0,.16-.156,1.643,1.643,0,0,0,.094-.206,1.029,1.029,0,0,0,.051-.264c.009-.109.014-.194.016-.256s0-.149,0-.26v-.08Z" transform="translate(0 0)" fill="#dfdce3"/><path d="M90.583,8.479h2.333V9.643a2.154,2.154,0,0,1,.234-.576,1.442,1.442,0,0,1,.309-.376,1.345,1.345,0,0,1,.374-.214,1.612,1.612,0,0,1,.384-.1,3.319,3.319,0,0,1,.379-.02,2.117,2.117,0,0,1,.6.086,1.674,1.674,0,0,1,.586.33,1.458,1.458,0,0,1,.434.61,2.009,2.009,0,0,1,.709-.8,1.952,1.952,0,0,1,.99-.23,2.584,2.584,0,0,1,.8.114,1.451,1.451,0,0,1,.571.33,2.21,2.21,0,0,1,.374.474,1.953,1.953,0,0,1,.22.6,5.873,5.873,0,0,1,.1.643q.026.3.026.666l-.026,7.305H97.567V11.139q0-.966-.486-.966a.479.479,0,0,0-.323.116.694.694,0,0,0-.2.3,1.944,1.944,0,0,0-.094.364,2.369,2.369,0,0,0-.026.35v7.179H94.047V10.969a1.279,1.279,0,0,0-.016-.186L94,10.609a.539.539,0,0,0-.056-.167,1.057,1.057,0,0,0-.084-.124.289.289,0,0,0-.116-.09.4.4,0,0,0-.156-.03.481.481,0,0,0-.33.12.744.744,0,0,0-.207.32,2.222,2.222,0,0,0-.1.394,2.519,2.519,0,0,0-.03.394v7.059H90.585Z" transform="translate(0 0)" fill="#dfdce3"/></svg>