<svg id="Layer_1" data-name="Layer 1" xmlns="http://www.w3.org/2000/svg" width="140" height="36.875" viewBox="0 0 140 36.875"><title>Logo_140x37</title><rect x="10.894" y="21.562" width="15.087" height="15.087" rx="6.999" ry="6.999" transform="translate(-15.18 21.563) rotate(-45)" fill="#f7b733"/><rect x="0.225" y="10.893" width="15.087" height="15.087" rx="6.999" ry="6.999" transform="translate(-10.761 10.894) rotate(-45)" fill="#fc4a1a"/><rect x="10.895" y="0.225" width="15.087" height="15.087" rx="6.999" ry="6.999" transform="translate(-0.093 15.314) rotate(-45)" fill="#4abdac"/><rect x="21.562" y="10.894" width="15.087" height="15.087" rx="6.999" ry="6.999" transform="translate(-4.512 25.981) rotate(-45)" fill="#00d2f1"/><path d="M39.366,25.877V11.013h3.285V22.976h3.378v2.9Z" transform="translate(0 0)" fill="#dfdce3"/><path d="M51.062,26.045q-4.182,0-4.182-4.358V16.07A4.423,4.423,0,0,1,48,12.888a4.583,4.583,0,0,1,6.13,0,4.423,4.423,0,0,1,1.12,3.182v5.618a4.485,4.485,0,0,1-1.069,3.276A4.191,4.191,0,0,1,51.062,26.045Zm-.785-10.507v6.84a1.251,1.251,0,0,0,.219.817.747.747,0,0,0,1.129,0,1.251,1.251,0,0,0,.22-.817v-6.84q0-1.223-.784-1.223t-.785,1.223Z" transform="translate(0 0)" fill="#dfdce3"/><path d="M56.489,25.877v-14H59.83v1.558a2.52,2.52,0,0,1,.784-1.344,2.053,2.053,0,0,1,1.278-.383,2.536,2.536,0,0,1,1.642.574,2.017,2.017,0,0,1,.709,1.666v4.685H60.977V15.286a3.4,3.4,0,0,0-.023-.425.683.683,0,0,0-.149-.331.434.434,0,0,0-.359-.159.56.56,0,0,0-.429.215.865.865,0,0,0-.187.588v10.7Z" transform="translate(0 0)" fill="#dfdce3"/><path d="M69.225,26.045a5.47,5.47,0,0,1-1.352-.154,3.845,3.845,0,0,1-1.027-.4,2.637,2.637,0,0,1-.718-.625,3.625,3.625,0,0,1-.482-.77,4.365,4.365,0,0,1-.28-.9,7.035,7.035,0,0,1-.141-.933q-.033-.428-.033-.952V15.687A3.826,3.826,0,0,1,66.3,12.734a4.386,4.386,0,0,1,3.093-1.022q4.031,0,4.031,3.975V16.7q0,1.894-.037,2.6H68.533v1.96c0,.063,0,.163,0,.3s0,.247,0,.322a5.011,5.011,0,0,0,.029.574,2.8,2.8,0,0,0,.1.485.691.691,0,0,0,.246.373.721.721,0,0,0,.434.126.56.56,0,0,0,.439-.191,1.161,1.161,0,0,0,.238-.55,5.361,5.361,0,0,0,.089-.639q.02-.28.019-.7,0-.82-.019-.9h3.322v.793a9.588,9.588,0,0,1-.176,1.988,4.121,4.121,0,0,1-.631,1.479,2.706,2.706,0,0,1-1.292.985A5.836,5.836,0,0,1,69.225,26.045Zm.131-11.823a.7.7,0,0,0-.438.135.776.776,0,0,0-.261.406,2.66,2.66,0,0,0-.112.56,6.935,6.935,0,0,0-.029.7q0,.2.008.588t.01.588H70.1v-1.46Q70.1,14.222,69.356,14.222Z" transform="translate(0 0)" fill="#dfdce3"/><path d="M74.643,11.871h3.266V13.5a3.015,3.015,0,0,1,.327-.807,2.018,2.018,0,0,1,.433-.527,1.883,1.883,0,0,1,.523-.3,2.257,2.257,0,0,1,.538-.14,4.647,4.647,0,0,1,.531-.028,2.964,2.964,0,0,1,.84.121,2.343,2.343,0,0,1,.821.462,2.041,2.041,0,0,1,.607.854,2.812,2.812,0,0,1,.993-1.12,2.733,2.733,0,0,1,1.386-.322,3.618,3.618,0,0,1,1.115.159,2.031,2.031,0,0,1,.8.462,3.094,3.094,0,0,1,.523.663,2.734,2.734,0,0,1,.309.835,8.221,8.221,0,0,1,.135.9q.036.42.037.933l-.037,10.227H84.419V15.594q0-1.352-.681-1.353a.671.671,0,0,0-.452.163.972.972,0,0,0-.285.425,2.723,2.723,0,0,0-.131.509,3.318,3.318,0,0,0-.037.49v10.05H79.493V15.6c0-.053,0-.134,0-.243a1.791,1.791,0,0,0-.022-.261l-.048-.243a.754.754,0,0,0-.079-.234,1.479,1.479,0,0,0-.117-.173.405.405,0,0,0-.163-.126.56.56,0,0,0-.219-.042.674.674,0,0,0-.462.168,1.042,1.042,0,0,0-.29.448,3.112,3.112,0,0,0-.139.551,3.527,3.527,0,0,0-.042.551v9.882H74.64Z" transform="translate(0 0)" fill="#dfdce3"/><path d="M93.845,25.877V11.013h3.173V25.877Z" transform="translate(0 0)" fill="#dfdce3"/><path d="M101.827,27.613h-3.4V11.881h3.4v.756a2.463,2.463,0,0,1,2.006-.924,3.09,3.09,0,0,1,1.19.215,2.259,2.259,0,0,1,.84.579,2.867,2.867,0,0,1,.523.905,5.284,5.284,0,0,1,.28,1.129,9.964,9.964,0,0,1,.079,1.307v5.17c0,.448,0,.789-.01,1.027s-.027.56-.064.975a4.882,4.882,0,0,1-.164.971,6,6,0,0,1-.326.8,1.83,1.83,0,0,1-.532.686,3.02,3.02,0,0,1-.8.406,3.294,3.294,0,0,1-1.111.173,2.453,2.453,0,0,1-1.912-.719Zm0-11.8V21.94a2.664,2.664,0,0,0,.182,1.125.637.637,0,0,0,.621.369.575.575,0,0,0,.56-.378,3.386,3.386,0,0,0,.168-1.265V15.846c0-.143,0-.245,0-.308s-.008-.166-.019-.313a1.148,1.148,0,0,0-.06-.336,2.433,2.433,0,0,0-.127-.261.485.485,0,0,0-.214-.21.739.739,0,0,0-.322-.065Q101.827,14.353,101.827,15.809Z" transform="translate(0 0)" fill="#dfdce3"/><path d="M112.593,16.051l-.018-.532a2.518,2.518,0,0,0-.029-.373,1.914,1.914,0,0,0-.1-.387.723.723,0,0,0-.224-.322.544.544,0,0,0-.354-.121.683.683,0,0,0-.527.2.776.776,0,0,0-.182.551,1.392,1.392,0,0,0,.6,1.185l2.061,1.512a7,7,0,0,1,1.064.961,5.28,5.28,0,0,1,.677.919,4.273,4.273,0,0,1,.363.891,4.614,4.614,0,0,1,.164.775q.027.3.027.672a3.9,3.9,0,0,1-1.134,3.037,4.4,4.4,0,0,1-3.074,1.031q-4.143,0-4.143-4.218l.018-1.111h3.342l.018,1.642a1.651,1.651,0,0,0,.079.56.614.614,0,0,0,.219.313.822.822,0,0,0,.258.121,1.139,1.139,0,0,0,.265.028q.672,0,.672-1.092c0-.187,0-.322-.008-.406a2.484,2.484,0,0,0-.07-.373,1.246,1.246,0,0,0-.2-.434,4.889,4.889,0,0,0-.392-.457,5.468,5.468,0,0,0-.649-.569l-1.782-1.372a6.18,6.18,0,0,1-.933-.873,2.8,2.8,0,0,1-.523-.9,4.216,4.216,0,0,1-.21-.849,8.154,8.154,0,0,1-.048-.975,2.917,2.917,0,0,1,.617-1.857,3.608,3.608,0,0,1,1.534-1.148,5.364,5.364,0,0,1,1.992-.364,4.215,4.215,0,0,1,3.02,1,4.072,4.072,0,0,1,1.049,3.08v.261Z" transform="translate(0 0)" fill="#dfdce3"/><path d="M122.1,11.881h3.322v14h-3.341V24.386a2.768,2.768,0,0,1-.9,1.325,2.227,2.227,0,0,1-1.254.336,3.21,3.21,0,0,1-1.223-.21,2.153,2.153,0,0,1-.8-.531,2.265,2.265,0,0,1-.453-.84,4.845,4.845,0,0,1-.209-1q-.048-.484-.048-1.157V11.881h3.36v9.751a5.167,5.167,0,0,0,.126,1.423.578.578,0,0,0,.621.359.756.756,0,0,0,.331-.07.5.5,0,0,0,.224-.219,2.3,2.3,0,0,0,.131-.289,1.44,1.44,0,0,0,.071-.369c.012-.153.02-.272.022-.359s0-.208,0-.364v-.112Z" transform="translate(0 0)" fill="#dfdce3"/><path d="M126.815,11.871h3.266V13.5a3.015,3.015,0,0,1,.327-.807,2.018,2.018,0,0,1,.433-.527,1.883,1.883,0,0,1,.523-.3,2.257,2.257,0,0,1,.538-.14,4.647,4.647,0,0,1,.531-.028,2.964,2.964,0,0,1,.84.121,2.343,2.343,0,0,1,.821.462,2.041,2.041,0,0,1,.607.854,2.812,2.812,0,0,1,.993-1.12,2.733,2.733,0,0,1,1.386-.322,3.618,3.618,0,0,1,1.115.159,2.031,2.031,0,0,1,.8.462,3.094,3.094,0,0,1,.523.663,2.734,2.734,0,0,1,.308.835,8.221,8.221,0,0,1,.135.9q.036.42.037.933l-.037,10.227h-3.369V15.594q0-1.352-.681-1.353a.671.671,0,0,0-.452.163.972.972,0,0,0-.285.425,2.723,2.723,0,0,0-.131.509,3.317,3.317,0,0,0-.037.49v10.05h-3.341V15.6c0-.053,0-.134,0-.243a1.791,1.791,0,0,0-.022-.261l-.048-.243a.754.754,0,0,0-.079-.234,1.479,1.479,0,0,0-.117-.173.405.405,0,0,0-.163-.126.56.56,0,0,0-.219-.042.674.674,0,0,0-.462.168,1.042,1.042,0,0,0-.29.448,3.112,3.112,0,0,0-.139.551,3.527,3.527,0,0,0-.042.551v9.882h-3.266Z" transform="translate(0 0)" fill="#dfdce3"/></svg>