<svg id="Layer_1" data-name="Layer 1" xmlns="http://www.w3.org/2000/svg" width="16" height="19.845" viewBox="0 0 16 19.845"><title>finger_16x20</title><path d="M238.544,193.357a1.976,1.976,0,0,1,1.421.559,1.86,1.86,0,0,1,.582,1.4v4.472a4.76,4.76,0,0,1,1,0,.934.934,0,0,1,1,.745,4.362,4.362,0,0,1,.978,0q.884.048.978.745a4.76,4.76,0,0,1,1,0,.934.934,0,0,1,1,.745,4.76,4.76,0,0,1,1,0,.934.934,0,0,1,1,.745v3.494a15.736,15.736,0,0,1-1.491,3.47,15.637,15.637,0,0,0-1.491,3.47h-7.966a38.826,38.826,0,0,0-1.374-3.727,12.5,12.5,0,0,0-3.61-5.217,5.916,5.916,0,0,1,.14-2.352q.325-1.839,3.866,1.374v-7.966a1.911,1.911,0,0,1,1.957-1.957Z" transform="translate(-232.513 -193.357)" fill="#fff"/></svg>