<svg id="Layer_1" data-name="Layer 1" xmlns="http://www.w3.org/2000/svg" width="200" height="53.123" viewBox="0 0 200 53.123"><title>Logo_200x53</title><rect x="15.8" y="31.018" width="21.525" height="21.525" rx="9.362" ry="9.362" transform="translate(-21.763 31.02) rotate(-45)" fill="#f7b733"/><rect x="0.58" y="15.8" width="21.525" height="21.525" rx="9.362" ry="9.362" transform="translate(-15.46 15.8) rotate(-45)" fill="#fc4a1a"/><rect x="15.801" y="0.579" width="21.525" height="21.525" rx="9.362" ry="9.362" transform="translate(-0.239 22.105) rotate(-45)" fill="#4abdac"/><rect x="31.019" y="15.799" width="21.525" height="21.525" rx="9.362" ry="9.362" transform="translate(-6.544 37.324) rotate(-45)" fill="#00d2f1"/><path d="M56.418,37.176V15.97H61.1V33.035h4.818v4.141Z" transform="translate(0 0)" fill="#dfdce3"/><path d="M73.1,37.416q-5.967,0-5.966-6.217V23.185a6.31,6.31,0,0,1,1.6-4.54,6.539,6.539,0,0,1,8.746,0,6.31,6.31,0,0,1,1.594,4.54V31.2a6.4,6.4,0,0,1-1.524,4.672A5.979,5.979,0,0,1,73.1,37.416Zm-1.123-14.99v9.758a1.784,1.784,0,0,0,.312,1.165,1.071,1.071,0,0,0,1.612,0,1.784,1.784,0,0,0,.313-1.165V22.426q0-1.748-1.123-1.748t-1.11,1.748Z" transform="translate(0 0)" fill="#dfdce3"/><path d="M80.847,37.176V17.2h4.766v2.223a3.6,3.6,0,0,1,1.123-1.917,2.932,2.932,0,0,1,1.823-.546,3.62,3.62,0,0,1,2.343.819,2.871,2.871,0,0,1,1.011,2.372v6.682H87.255v-4.77a4.848,4.848,0,0,0-.034-.607.975.975,0,0,0-.213-.472.624.624,0,0,0-.513-.226.8.8,0,0,0-.613.306,1.235,1.235,0,0,0-.266.839V37.176Z" transform="translate(0 0)" fill="#dfdce3"/><path d="M99.016,37.416a7.8,7.8,0,0,1-1.93-.22,5.485,5.485,0,0,1-1.459-.572,3.762,3.762,0,0,1-1.025-.893,5.171,5.171,0,0,1-.687-1.1,6.226,6.226,0,0,1-.4-1.278,10.037,10.037,0,0,1-.2-1.331q-.046-.612-.046-1.358V22.639a5.453,5.453,0,0,1,1.578-4.214,6.259,6.259,0,0,1,4.413-1.457q5.751,0,5.751,5.671V24.09q0,2.7-.054,3.714H98.029v2.8c0,.089,0,.232-.007.433s-.007.352-.007.459a7.149,7.149,0,0,0,.041.819A4,4,0,0,0,98.2,33a.985.985,0,0,0,.352.533,1.029,1.029,0,0,0,.624.18.794.794,0,0,0,.624-.273,1.656,1.656,0,0,0,.34-.785,7.647,7.647,0,0,0,.125-.913q.027-.4.026-1,0-1.171-.026-1.278h4.744V30.6a13.68,13.68,0,0,1-.25,2.836,5.88,5.88,0,0,1-.9,2.11,3.859,3.859,0,0,1-1.844,1.4A8.326,8.326,0,0,1,99.016,37.416ZM99.2,20.548a1,1,0,0,0-.624.192,1.107,1.107,0,0,0-.374.579,3.794,3.794,0,0,0-.16.793A9.9,9.9,0,0,0,98,23.1q0,.28.012.839t.014.839h2.237V22.706q0-2.157-1.064-2.157Z" transform="translate(0 0)" fill="#dfdce3"/><path d="M106.745,17.194h4.662v2.329a4.3,4.3,0,0,1,.467-1.152,2.877,2.877,0,0,1,.624-.749,2.687,2.687,0,0,1,.749-.426,3.221,3.221,0,0,1,.766-.2,6.629,6.629,0,0,1,.758-.04,4.228,4.228,0,0,1,1.2.174,3.343,3.343,0,0,1,1.171.659,2.911,2.911,0,0,1,.866,1.218,4.011,4.011,0,0,1,1.417-1.592,3.9,3.9,0,0,1,1.977-.459,5.16,5.16,0,0,1,1.59.226,2.9,2.9,0,0,1,1.145.659,4.415,4.415,0,0,1,.749.946,3.9,3.9,0,0,1,.439,1.191,11.732,11.732,0,0,1,.193,1.278q.052.6.054,1.331l-.054,14.59h-4.806V22.506q0-1.93-.972-1.93a.957.957,0,0,0-.644.233,1.388,1.388,0,0,0-.407.605,3.885,3.885,0,0,0-.186.725,4.735,4.735,0,0,0-.054.7V37.176h-4.766V22.513c0-.076,0-.191-.007-.346a2.556,2.556,0,0,0-.032-.374l-.067-.346a1.076,1.076,0,0,0-.114-.333,2.111,2.111,0,0,0-.167-.25.578.578,0,0,0-.232-.18.8.8,0,0,0-.312-.06.96.96,0,0,0-.659.24,1.485,1.485,0,0,0-.413.639,4.439,4.439,0,0,0-.2.785,5.033,5.033,0,0,0-.06.785v14.1h-4.66Z" transform="translate(0 0)" fill="#dfdce3"/><path d="M134.14,37.176V15.97h4.526V37.176Z" transform="translate(0 0)" fill="#dfdce3"/><path d="M145.526,39.652H140.68V17.208h4.846v1.076a3.514,3.514,0,0,1,2.862-1.318,4.409,4.409,0,0,1,1.7.306,3.223,3.223,0,0,1,1.2.825,4.089,4.089,0,0,1,.749,1.291,7.538,7.538,0,0,1,.4,1.61,14.211,14.211,0,0,1,.114,1.864v7.375c0,.639,0,1.123-.014,1.458s-.039.8-.092,1.391a6.963,6.963,0,0,1-.233,1.384,8.558,8.558,0,0,1-.466,1.138,2.61,2.61,0,0,1-.759.979,4.308,4.308,0,0,1-1.138.579,4.7,4.7,0,0,1-1.585.25,3.5,3.5,0,0,1-2.729-1.025Zm0-16.84v8.746a3.8,3.8,0,0,0,.26,1.6.91.91,0,0,0,.885.526.82.82,0,0,0,.8-.539,4.831,4.831,0,0,0,.24-1.8v-8.48c0-.2,0-.351-.007-.439s-.012-.237-.026-.446a1.636,1.636,0,0,0-.085-.479,3.471,3.471,0,0,0-.181-.374.693.693,0,0,0-.306-.3,1.055,1.055,0,0,0-.459-.094q-1.119,0-1.118,2.078Z" transform="translate(0 0)" fill="#dfdce3"/><path d="M160.885,23.152l-.025-.759a3.593,3.593,0,0,0-.041-.533,2.733,2.733,0,0,0-.147-.552,1.032,1.032,0,0,0-.32-.459.776.776,0,0,0-.5-.174.975.975,0,0,0-.749.28,1.107,1.107,0,0,0-.26.785,1.986,1.986,0,0,0,.853,1.69l2.941,2.157a9.987,9.987,0,0,1,1.518,1.373,7.534,7.534,0,0,1,.965,1.311,6.1,6.1,0,0,1,.518,1.272,6.583,6.583,0,0,1,.233,1.1c.025.285.039.6.039.959a5.562,5.562,0,0,1-1.623,4.333,6.273,6.273,0,0,1-4.387,1.472q-5.911,0-5.911-6.017l.025-1.584h4.767l.025,2.343a2.354,2.354,0,0,0,.114.793.874.874,0,0,0,.312.446,1.172,1.172,0,0,0,.367.174,1.623,1.623,0,0,0,.374.04q.959,0,.959-1.558c0-.266,0-.459-.012-.579a3.543,3.543,0,0,0-.1-.533,1.777,1.777,0,0,0-.281-.624,6.976,6.976,0,0,0-.559-.653,7.8,7.8,0,0,0-.925-.813L156.52,26.9a8.817,8.817,0,0,1-1.337-1.248,4,4,0,0,1-.749-1.278,6.014,6.014,0,0,1-.3-1.212,11.633,11.633,0,0,1-.067-1.391,4.162,4.162,0,0,1,.874-2.649,5.148,5.148,0,0,1,2.188-1.638,7.652,7.652,0,0,1,2.842-.519,6.013,6.013,0,0,1,4.308,1.424,5.808,5.808,0,0,1,1.5,4.393v.373Z" transform="translate(0 0)" fill="#dfdce3"/><path d="M174.447,17.208h4.744V37.181h-4.766V35.046a3.95,3.95,0,0,1-1.285,1.89,3.177,3.177,0,0,1-1.79.479,4.58,4.58,0,0,1-1.748-.3,3.071,3.071,0,0,1-1.145-.758,3.232,3.232,0,0,1-.647-1.2,6.913,6.913,0,0,1-.3-1.432q-.067-.692-.067-1.65V17.208h4.792V31.119a7.371,7.371,0,0,0,.18,2.03.824.824,0,0,0,.885.513,1.078,1.078,0,0,0,.472-.1.708.708,0,0,0,.32-.313,3.287,3.287,0,0,0,.186-.413,2.054,2.054,0,0,0,.1-.526c.016-.218.027-.388.032-.513s.007-.3.007-.519v-.16Z" transform="translate(0 0)" fill="#dfdce3"/><path d="M181.175,17.194h4.66v2.329a4.3,4.3,0,0,1,.467-1.152,2.877,2.877,0,0,1,.624-.749,2.687,2.687,0,0,1,.749-.426,3.221,3.221,0,0,1,.766-.2,6.629,6.629,0,0,1,.758-.04,4.228,4.228,0,0,1,1.2.174,3.343,3.343,0,0,1,1.171.659,2.911,2.911,0,0,1,.866,1.218,4.011,4.011,0,0,1,1.417-1.592,3.9,3.9,0,0,1,1.977-.459,5.16,5.16,0,0,1,1.59.226,2.9,2.9,0,0,1,1.145.659,4.415,4.415,0,0,1,.749.946,3.9,3.9,0,0,1,.439,1.191,11.732,11.732,0,0,1,.193,1.278q.052.6.054,1.331l-.054,14.59H195.14V22.506q0-1.93-.972-1.93a.957.957,0,0,0-.644.233,1.388,1.388,0,0,0-.407.605,3.885,3.885,0,0,0-.186.725,4.735,4.735,0,0,0-.054.7V37.176h-4.766V22.513c0-.076,0-.191-.007-.346a2.556,2.556,0,0,0-.032-.374L188,21.447a1.076,1.076,0,0,0-.114-.333,2.111,2.111,0,0,0-.167-.25.578.578,0,0,0-.232-.18.8.8,0,0,0-.312-.06.96.96,0,0,0-.659.24,1.485,1.485,0,0,0-.413.639,4.439,4.439,0,0,0-.2.785,5.033,5.033,0,0,0-.06.785v14.1h-4.672Z" transform="translate(0 0)" fill="#dfdce3"/></svg>