<svg id="Layer_1" data-name="Layer 1" xmlns="http://www.w3.org/2000/svg" width="160.207" height="42.556" viewBox="0 0 160.207 42.556"><title>Logo_160x43</title><rect x="88.31" y="91.302" width="17.243" height="17.243" rx="7.5" ry="7.5" transform="translate(-117.919 31.354) rotate(-45)" fill="#f7b733"/><rect x="76.117" y="79.11" width="17.243" height="17.243" rx="7.5" ry="7.5" transform="translate(-112.869 19.162) rotate(-45)" fill="#fc4a1a"/><rect x="88.31" y="66.918" width="17.243" height="17.243" rx="7.5" ry="7.5" transform="translate(-100.676 24.212) rotate(-45)" fill="#4abdac"/><rect x="100.502" y="79.11" width="17.243" height="17.243" rx="7.5" ry="7.5" transform="translate(-105.727 36.404) rotate(-45)" fill="#00d2f1"/><path d="M120.849,96.234V79.246H124.6V92.917h3.86v3.317Z" transform="translate(-75.653 -66.453)" fill="#dfdce3"/><path d="M134.216,96.426q-4.78,0-4.779-4.98v-6.42a5.055,5.055,0,0,1,1.28-3.637,5.238,5.238,0,0,1,7.006,0A5.055,5.055,0,0,1,139,85.026v6.42a5.125,5.125,0,0,1-1.221,3.743A4.79,4.79,0,0,1,134.216,96.426Zm-.9-12.008v7.817a1.429,1.429,0,0,0,.25.933.858.858,0,0,0,1.291,0,1.429,1.429,0,0,0,.251-.933V84.418q0-1.4-.9-1.4T133.319,84.418Z" transform="translate(-75.653 -66.453)" fill="#dfdce3"/><path d="M140.418,96.234v-16h3.818v1.781a2.882,2.882,0,0,1,.9-1.536,2.349,2.349,0,0,1,1.46-.437,2.9,2.9,0,0,1,1.877.656,2.3,2.3,0,0,1,.81,1.9v5.353h-3.731V84.13a3.885,3.885,0,0,0-.027-.486.781.781,0,0,0-.171-.378.5.5,0,0,0-.411-.181.637.637,0,0,0-.491.245.989.989,0,0,0-.213.672V96.234Z" transform="translate(-75.653 -66.453)" fill="#dfdce3"/><path d="M154.973,96.426a6.251,6.251,0,0,1-1.546-.176,4.394,4.394,0,0,1-1.169-.458,3.014,3.014,0,0,1-.821-.715,4.143,4.143,0,0,1-.55-.88,4.988,4.988,0,0,1-.324-1.024,8.04,8.04,0,0,1-.161-1.066q-.037-.49-.037-1.088V84.589a4.368,4.368,0,0,1,1.264-3.376,5.014,5.014,0,0,1,3.535-1.167q4.607,0,4.607,4.543v1.162q0,2.165-.043,2.975h-5.545v2.24c0,.071,0,.186-.006.347s-.006.282-.006.368a5.725,5.725,0,0,0,.033.656,3.2,3.2,0,0,0,.118.555.789.789,0,0,0,.282.427.824.824,0,0,0,.5.144.636.636,0,0,0,.5-.219,1.327,1.327,0,0,0,.272-.629,6.127,6.127,0,0,0,.1-.731q.022-.32.021-.8,0-.938-.021-1.024h3.8v.906a10.958,10.958,0,0,1-.2,2.272,4.71,4.71,0,0,1-.721,1.69,3.091,3.091,0,0,1-1.477,1.125A6.67,6.67,0,0,1,154.973,96.426Zm.149-13.512a.8.8,0,0,0-.5.154.887.887,0,0,0-.3.464,3.039,3.039,0,0,0-.128.635,7.93,7.93,0,0,0-.033.794q0,.224.01.672t.011.672h1.792V84.642Q155.975,82.914,155.122,82.914Z" transform="translate(-75.653 -66.453)" fill="#dfdce3"/><path d="M161.165,80.227H164.9v1.866a3.446,3.446,0,0,1,.374-.923,2.305,2.305,0,0,1,.5-.6,2.152,2.152,0,0,1,.6-.341,2.58,2.58,0,0,1,.614-.16,5.311,5.311,0,0,1,.607-.032,3.387,3.387,0,0,1,.96.139,2.678,2.678,0,0,1,.938.528,2.332,2.332,0,0,1,.694.976,3.213,3.213,0,0,1,1.135-1.275,3.123,3.123,0,0,1,1.584-.368,4.134,4.134,0,0,1,1.274.181,2.321,2.321,0,0,1,.917.528,3.537,3.537,0,0,1,.6.758,3.124,3.124,0,0,1,.352.954,9.4,9.4,0,0,1,.155,1.024q.042.48.043,1.066l-.043,11.688h-3.85V84.482q0-1.546-.779-1.546a.767.767,0,0,0-.516.187,1.112,1.112,0,0,0-.326.485,3.112,3.112,0,0,0-.149.581,3.792,3.792,0,0,0-.043.56V96.234h-3.818V84.488c0-.061,0-.153-.006-.277a2.048,2.048,0,0,0-.026-.3l-.054-.277a.862.862,0,0,0-.091-.267,1.691,1.691,0,0,0-.134-.2.463.463,0,0,0-.186-.144.638.638,0,0,0-.25-.048.769.769,0,0,0-.528.192,1.19,1.19,0,0,0-.331.512,3.556,3.556,0,0,0-.159.629,4.032,4.032,0,0,0-.048.629V96.234h-3.733Z" transform="translate(-75.653 -66.453)" fill="#dfdce3"/><path d="M183.111,96.234V79.246h3.626V96.234Z" transform="translate(-75.653 -66.453)" fill="#dfdce3"/><path d="M192.232,98.218H188.35V80.238h3.882V81.1a2.815,2.815,0,0,1,2.293-1.056,3.532,3.532,0,0,1,1.359.245,2.582,2.582,0,0,1,.96.661,3.276,3.276,0,0,1,.6,1.034,6.039,6.039,0,0,1,.32,1.29,11.385,11.385,0,0,1,.091,1.493v5.908c0,.512,0,.9-.011,1.168s-.031.638-.074,1.114a5.579,5.579,0,0,1-.187,1.109,6.856,6.856,0,0,1-.373.912,2.091,2.091,0,0,1-.608.784,3.451,3.451,0,0,1-.912.464,3.764,3.764,0,0,1-1.27.2,2.8,2.8,0,0,1-2.186-.821Zm0-13.49v7.006a3.045,3.045,0,0,0,.208,1.285.729.729,0,0,0,.709.421.657.657,0,0,0,.64-.432,3.87,3.87,0,0,0,.192-1.445V84.77c0-.163,0-.281-.006-.352s-.01-.19-.021-.357a1.311,1.311,0,0,0-.068-.384,2.78,2.78,0,0,0-.145-.3.555.555,0,0,0-.245-.24.845.845,0,0,0-.368-.075Q192.232,83.064,192.232,84.727Z" transform="translate(-75.653 -66.453)" fill="#dfdce3"/><path d="M204.536,85l-.02-.608a2.878,2.878,0,0,0-.033-.427,2.189,2.189,0,0,0-.118-.442.827.827,0,0,0-.256-.368.622.622,0,0,0-.4-.139.781.781,0,0,0-.6.224.887.887,0,0,0-.208.629,1.591,1.591,0,0,0,.683,1.354l2.356,1.728a8,8,0,0,1,1.216,1.1,6.035,6.035,0,0,1,.773,1.05,4.884,4.884,0,0,1,.415,1.019,5.274,5.274,0,0,1,.187.885c.02.228.031.484.031.768a4.456,4.456,0,0,1-1.3,3.471,5.025,5.025,0,0,1-3.514,1.179q-4.735,0-4.735-4.82l.02-1.269h3.819l.02,1.877a1.886,1.886,0,0,0,.091.635.7.7,0,0,0,.25.357.939.939,0,0,0,.294.139,1.3,1.3,0,0,0,.3.032q.768,0,.768-1.248c0-.213,0-.368-.01-.464a2.838,2.838,0,0,0-.08-.427,1.424,1.424,0,0,0-.225-.5,5.588,5.588,0,0,0-.448-.523,6.248,6.248,0,0,0-.741-.651L201.039,88a7.063,7.063,0,0,1-1.071-1,3.2,3.2,0,0,1-.6-1.024,4.818,4.818,0,0,1-.24-.971,9.32,9.32,0,0,1-.054-1.114,3.334,3.334,0,0,1,.7-2.122,4.124,4.124,0,0,1,1.753-1.312,6.13,6.13,0,0,1,2.277-.416,4.817,4.817,0,0,1,3.451,1.141,4.653,4.653,0,0,1,1.2,3.519V85Z" transform="translate(-75.653 -66.453)" fill="#dfdce3"/><path d="M215.4,80.238h3.8v16h-3.818V94.528a3.164,3.164,0,0,1-1.029,1.514,2.545,2.545,0,0,1-1.434.384,3.669,3.669,0,0,1-1.4-.24,2.46,2.46,0,0,1-.917-.607,2.589,2.589,0,0,1-.518-.96,5.538,5.538,0,0,1-.239-1.147q-.054-.554-.054-1.322V80.238h3.839V91.382a5.905,5.905,0,0,0,.144,1.626.66.66,0,0,0,.709.411.864.864,0,0,0,.378-.08.567.567,0,0,0,.256-.251,2.632,2.632,0,0,0,.149-.331,1.645,1.645,0,0,0,.081-.421c.013-.175.022-.311.026-.411s.006-.238.006-.416v-.128Z" transform="translate(-75.653 -66.453)" fill="#dfdce3"/><path d="M220.79,80.227h3.733v1.866a3.446,3.446,0,0,1,.374-.923,2.305,2.305,0,0,1,.5-.6,2.152,2.152,0,0,1,.6-.341,2.58,2.58,0,0,1,.614-.16,5.311,5.311,0,0,1,.607-.032,3.387,3.387,0,0,1,.96.139,2.678,2.678,0,0,1,.938.528,2.332,2.332,0,0,1,.694.976,3.213,3.213,0,0,1,1.135-1.275,3.123,3.123,0,0,1,1.584-.368,4.134,4.134,0,0,1,1.274.181,2.321,2.321,0,0,1,.917.528,3.537,3.537,0,0,1,.6.758,3.124,3.124,0,0,1,.352.954,9.4,9.4,0,0,1,.155,1.024q.042.48.043,1.066l-.043,11.688h-3.85V84.482q0-1.546-.779-1.546a.767.767,0,0,0-.516.187,1.112,1.112,0,0,0-.326.485,3.112,3.112,0,0,0-.149.581,3.792,3.792,0,0,0-.043.56V96.234h-3.818V84.488c0-.061,0-.153-.006-.277a2.048,2.048,0,0,0-.026-.3l-.054-.277a.862.862,0,0,0-.091-.267,1.691,1.691,0,0,0-.134-.2.463.463,0,0,0-.186-.144.638.638,0,0,0-.25-.048.769.769,0,0,0-.528.192,1.19,1.19,0,0,0-.331.512,3.556,3.556,0,0,0-.159.629,4.032,4.032,0,0,0-.048.629V96.234H220.79Z" transform="translate(-75.653 -66.453)" fill="#dfdce3"/></svg>