<svg id="Layer_1" data-name="Layer 1" xmlns="http://www.w3.org/2000/svg" width="150.02" height="39.514" viewBox="0 0 150.02 39.514"><title>Logo_150x40</title><rect x="97.513" y="89.765" width="16.167" height="16.167" rx="7.5" ry="7.5" transform="translate(-124.1 36.667) rotate(-45)" fill="#f7b733"/><rect x="86.081" y="78.333" width="16.167" height="16.167" rx="7.5" ry="7.5" transform="translate(-119.365 25.235) rotate(-45)" fill="#fc4a1a"/><rect x="97.513" y="66.902" width="16.167" height="16.167" rx="7.5" ry="7.5" transform="translate(-107.933 29.97) rotate(-45)" fill="#4abdac"/><rect x="108.944" y="78.333" width="16.167" height="16.167" rx="7.5" ry="7.5" transform="translate(-112.668 41.402) rotate(-45)" fill="#00d2f1"/><path d="M128.022,94.389V78.461h3.52V91.28h3.62v3.11Z" transform="translate(-85.839 -66.66)" fill="#dfdce3"/><path d="M140.555,94.569q-4.481,0-4.481-4.67V83.88a4.74,4.74,0,0,1,1.2-3.41,4.911,4.911,0,0,1,6.569,0,4.74,4.74,0,0,1,1.2,3.41V89.9a4.806,4.806,0,0,1-1.145,3.51A4.491,4.491,0,0,1,140.555,94.569Zm-.841-11.259V90.64a1.34,1.34,0,0,0,.235.875.8.8,0,0,0,1.21,0,1.34,1.34,0,0,0,.236-.875V83.31q0-1.31-.84-1.31T139.714,83.31Z" transform="translate(-85.839 -66.66)" fill="#dfdce3"/><path d="M146.371,94.389v-15h3.58v1.67a2.7,2.7,0,0,1,.84-1.44,2.2,2.2,0,0,1,1.369-.41,2.717,2.717,0,0,1,1.76.615,2.161,2.161,0,0,1,.76,1.785v5.02h-3.5V83.04a3.642,3.642,0,0,0-.025-.455.732.732,0,0,0-.16-.355.465.465,0,0,0-.385-.17.6.6,0,0,0-.46.23.927.927,0,0,0-.2.63V94.389Z" transform="translate(-85.839 -66.66)" fill="#dfdce3"/><path d="M160.018,94.569a5.861,5.861,0,0,1-1.449-.165,4.12,4.12,0,0,1-1.1-.429,2.826,2.826,0,0,1-.769-.67,3.884,3.884,0,0,1-.516-.825,4.677,4.677,0,0,1-.3-.96,7.539,7.539,0,0,1-.151-1q-.035-.459-.035-1.02V83.47a4.1,4.1,0,0,1,1.185-3.165,4.7,4.7,0,0,1,3.314-1.095q4.32,0,4.32,4.26v1.09q0,2.03-.04,2.79h-5.2v2.1c0,.067,0,.175-.005.325s-.005.265-.005.345a5.368,5.368,0,0,0,.031.615,3,3,0,0,0,.111.52.74.74,0,0,0,.264.4.773.773,0,0,0,.465.135.6.6,0,0,0,.47-.205,1.244,1.244,0,0,0,.255-.589,5.745,5.745,0,0,0,.095-.685q.021-.3.02-.75,0-.879-.02-.96h3.56v.85a10.274,10.274,0,0,1-.189,2.13,4.416,4.416,0,0,1-.676,1.585,2.9,2.9,0,0,1-1.385,1.055A6.254,6.254,0,0,1,160.018,94.569Zm.14-12.669a.752.752,0,0,0-.469.145.832.832,0,0,0-.28.435,2.85,2.85,0,0,0-.12.6,7.435,7.435,0,0,0-.031.745q0,.21.009.63t.011.63h1.68V83.52Q160.958,81.9,160.158,81.9Z" transform="translate(-85.839 -66.66)" fill="#dfdce3"/><path d="M165.824,79.381h3.5v1.75a3.231,3.231,0,0,1,.35-.865,2.162,2.162,0,0,1,.464-.565,2.018,2.018,0,0,1,.56-.32,2.419,2.419,0,0,1,.576-.15,4.98,4.98,0,0,1,.569-.03,3.176,3.176,0,0,1,.9.13,2.511,2.511,0,0,1,.88.495,2.187,2.187,0,0,1,.65.915,3.013,3.013,0,0,1,1.064-1.2,2.928,2.928,0,0,1,1.485-.345,3.877,3.877,0,0,1,1.195.17,2.176,2.176,0,0,1,.86.495,3.316,3.316,0,0,1,.56.71,2.93,2.93,0,0,1,.331.895,8.81,8.81,0,0,1,.145.96q.039.45.04,1l-.04,10.959H176.3V83.37q0-1.449-.73-1.45a.719.719,0,0,0-.484.175,1.042,1.042,0,0,0-.305.455,2.918,2.918,0,0,0-.14.545,3.555,3.555,0,0,0-.04.525V94.389h-3.58V83.376c0-.057,0-.144-.005-.26a1.92,1.92,0,0,0-.024-.28l-.051-.26a.808.808,0,0,0-.085-.251,1.586,1.586,0,0,0-.125-.185.434.434,0,0,0-.175-.135.6.6,0,0,0-.235-.045.722.722,0,0,0-.495.18,1.116,1.116,0,0,0-.311.48,3.334,3.334,0,0,0-.149.59,3.78,3.78,0,0,0-.045.59V94.389h-3.5Z" transform="translate(-85.839 -66.66)" fill="#dfdce3"/><path d="M186.4,94.389V78.461h3.4V94.389Z" transform="translate(-85.839 -66.66)" fill="#dfdce3"/><path d="M194.953,96.249h-3.64V79.391h3.64v.81a2.639,2.639,0,0,1,2.15-.99,3.311,3.311,0,0,1,1.275.23,2.421,2.421,0,0,1,.9.62,3.072,3.072,0,0,1,.56.97,5.662,5.662,0,0,1,.3,1.21,10.675,10.675,0,0,1,.085,1.4v5.54c0,.48,0,.845-.011,1.1s-.029.6-.069,1.045a5.231,5.231,0,0,1-.176,1.04,6.429,6.429,0,0,1-.349.855,1.961,1.961,0,0,1-.57.735,3.236,3.236,0,0,1-.855.435,3.53,3.53,0,0,1-1.19.185,2.629,2.629,0,0,1-2.049-.77Zm0-12.649V90.17a2.855,2.855,0,0,0,.195,1.205.683.683,0,0,0,.665.395.616.616,0,0,0,.6-.405,3.629,3.629,0,0,0,.18-1.355V83.64c0-.153,0-.263-.005-.33s-.009-.178-.02-.335a1.23,1.23,0,0,0-.064-.36,2.607,2.607,0,0,0-.136-.28.52.52,0,0,0-.229-.225.792.792,0,0,0-.345-.07Q194.953,82.04,194.953,83.6Z" transform="translate(-85.839 -66.66)" fill="#dfdce3"/><path d="M206.49,83.86l-.019-.57a2.7,2.7,0,0,0-.031-.4,2.052,2.052,0,0,0-.111-.415.775.775,0,0,0-.24-.345.583.583,0,0,0-.379-.13.732.732,0,0,0-.565.21.832.832,0,0,0-.195.59,1.492,1.492,0,0,0,.64,1.27l2.209,1.62a7.5,7.5,0,0,1,1.14,1.03,5.659,5.659,0,0,1,.725.985,4.579,4.579,0,0,1,.389.955,4.945,4.945,0,0,1,.176.83c.019.214.029.454.029.72a4.178,4.178,0,0,1-1.215,3.254,4.711,4.711,0,0,1-3.294,1.105q-4.44,0-4.44-4.52l.019-1.19h3.581l.019,1.76a1.769,1.769,0,0,0,.085.6.658.658,0,0,0,.235.335.881.881,0,0,0,.276.13,1.22,1.22,0,0,0,.284.03q.72,0,.72-1.17c0-.2,0-.345-.009-.435a2.661,2.661,0,0,0-.075-.4,1.335,1.335,0,0,0-.211-.465,5.24,5.24,0,0,0-.42-.49,5.858,5.858,0,0,0-.695-.61l-1.91-1.47a6.622,6.622,0,0,1-1-.935,3,3,0,0,1-.56-.96,4.517,4.517,0,0,1-.225-.91,8.739,8.739,0,0,1-.051-1.045,3.126,3.126,0,0,1,.661-1.99,3.866,3.866,0,0,1,1.644-1.23,5.748,5.748,0,0,1,2.135-.39,4.517,4.517,0,0,1,3.236,1.07,4.363,4.363,0,0,1,1.124,3.3v.28Z" transform="translate(-85.839 -66.66)" fill="#dfdce3"/><path d="M216.672,79.391h3.56v15h-3.58v-1.6a2.966,2.966,0,0,1-.965,1.42,2.386,2.386,0,0,1-1.344.36,3.44,3.44,0,0,1-1.31-.225,2.307,2.307,0,0,1-.86-.569,2.427,2.427,0,0,1-.485-.9,5.192,5.192,0,0,1-.224-1.075q-.051-.519-.051-1.24V79.391h3.6V89.84a5.537,5.537,0,0,0,.135,1.525.619.619,0,0,0,.665.385.81.81,0,0,0,.355-.075.532.532,0,0,0,.24-.235,2.468,2.468,0,0,0,.14-.31,1.543,1.543,0,0,0,.076-.395c.013-.164.021-.292.024-.385s.005-.223.005-.39v-.12Z" transform="translate(-85.839 -66.66)" fill="#dfdce3"/><path d="M221.73,79.381h3.5v1.75a3.231,3.231,0,0,1,.35-.865,2.162,2.162,0,0,1,.464-.565,2.018,2.018,0,0,1,.56-.32,2.419,2.419,0,0,1,.576-.15,4.98,4.98,0,0,1,.569-.03,3.176,3.176,0,0,1,.9.13,2.511,2.511,0,0,1,.88.495,2.187,2.187,0,0,1,.65.915,3.013,3.013,0,0,1,1.064-1.2,2.928,2.928,0,0,1,1.485-.345,3.877,3.877,0,0,1,1.195.17,2.176,2.176,0,0,1,.86.495,3.316,3.316,0,0,1,.56.71,2.93,2.93,0,0,1,.33.895,8.81,8.81,0,0,1,.145.96q.039.45.04,1l-.04,10.959h-3.61V83.37q0-1.449-.73-1.45a.719.719,0,0,0-.484.175,1.042,1.042,0,0,0-.305.455,2.918,2.918,0,0,0-.14.545,3.555,3.555,0,0,0-.04.525V94.389h-3.58V83.376c0-.057,0-.144-.005-.26a1.92,1.92,0,0,0-.024-.28l-.051-.26a.808.808,0,0,0-.085-.251,1.586,1.586,0,0,0-.125-.185.434.434,0,0,0-.175-.135.6.6,0,0,0-.235-.045.722.722,0,0,0-.495.18,1.116,1.116,0,0,0-.311.48,3.334,3.334,0,0,0-.149.59,3.78,3.78,0,0,0-.045.59V94.389h-3.5Z" transform="translate(-85.839 -66.66)" fill="#dfdce3"/></svg>
